<svg width="28" height="24" fill="none" xmlns="http://www.w3.org/2000/svg"><g clip-path="url(#clip0)" fill="#fff"><path d="M26.87 16.88h-3.434a.397.397 0 110-.794h3.434a.19.19 0 00.192-.193V11.89a.195.195 0 00-.173-.191l-5.57-.715H3.248v4.91a.19.19 0 00.191.191h1.943a.397.397 0 010 .794H3.439a.987.987 0 01-.986-.986v-5.305a.397.397 0 01.397-.397h18.494c.017 0 .034.001.05.003l5.59.715a.985.985 0 01.872.98v4.004a.988.988 0 01-.986.987z"/><path d="M18.637 16.88H10.18a.397.397 0 110-.794h8.457a.397.397 0 010 .794zm2.709-5.893a.397.397 0 01-.351-.21L18.154 5.45l-.372.011a.397.397 0 110-.794h.393a.775.775 0 01.678.405l2.843 5.33a.396.396 0 01-.35.585zm-18.498 0a.398.398 0 01-.35-.584l2.845-5.328a.762.762 0 01.68-.408h7.389a.397.397 0 110 .794h-7.39L3.2 10.777a.397.397 0 01-.35.21zm13.055-5.526h-.616a.397.397 0 110-.794h.616a.397.397 0 110 .794z"/><path d="M11.912 10.986a.397.397 0 01-.398-.398V5.066a.397.397 0 01.795 0v5.522a.397.397 0 01-.397.398zm9.124 8.167a2.803 2.803 0 110-5.606 2.803 2.803 0 010 5.606zm0-4.812a2.008 2.008 0 100 4.017 2.008 2.008 0 000-4.017zM7.782 19.153a2.803 2.803 0 11-.001-5.605 2.803 2.803 0 01.001 5.605zm0-4.811a2.008 2.008 0 10-.001 4.015 2.008 2.008 0 00.001-4.015zm8.941-1.115h-.63a.397.397 0 110-.794h.63a.397.397 0 010 .794zm-5.108 0h-.629a.397.397 0 110-.794h.629a.397.397 0 010 .794zm-2.258 8.514h-3.84a.397.397 0 010-.794h3.84a.397.397 0 110 .794zm-5.837 0h-.614a.397.397 0 010-.794h.615a.397.397 0 110 .794zm9.584 2.23h-3.84a.397.397 0 110-.794h3.84a.397.397 0 110 .794zm-5.836 0h-.614a.397.397 0 110-.794h.614a.397.397 0 110 .794zM8.853 3.053h-3.84a.397.397 0 110-.794h3.84a.397.397 0 110 .794zm2.61 0h-.614a.397.397 0 010-.794h.614a.397.397 0 110 .794zM6.895.824H3.056a.397.397 0 110-.795h3.84a.397.397 0 110 .795zm-5.835 0H.445a.397.397 0 010-.795h.615a.397.397 0 110 .795z"/></g><defs><clipPath id="clip0"><path fill="#fff" d="M0 0h27.904v24H0z"/></clipPath></defs></svg>