<svg width="512" height="512" fill="none" xmlns="http://www.w3.org/2000/svg"><path d="M282.2 404h95.791a6.003 6.003 0 004.243-1.757 6.003 6.003 0 000-8.486 6.003 6.003 0 00-4.243-1.757H282.2a6.003 6.003 0 00-4.243 1.757 6.003 6.003 0 000 8.486A6.003 6.003 0 00282.2 404zm0-16h95.791a6.003 6.003 0 004.243-1.757 6.003 6.003 0 000-8.486 6.003 6.003 0 00-4.243-1.757H282.2a5.99 5.99 0 00-4.243 1.757A6.003 6.003 0 00282.2 388zm116.135 30h32.993a21.5 21.5 0 100-43H404.3a5.986 5.986 0 00-5.891 4.848l-5.966 30.858a6.171 6.171 0 001.263 5.035 6.075 6.075 0 004.629 2.259zm10.917-31h22.076a9.503 9.503 0 016.718 2.782 9.503 9.503 0 010 13.436 9.503 9.503 0 01-6.718 2.782h-25.723l3.647-19zm-180.398 31h32.994a6.122 6.122 0 005.89-7.261l-5.966-30.871a6.003 6.003 0 00-5.89-4.868h-27.028a21.5 21.5 0 100 43zm0-31h22.077l3.646 19h-25.723a9.503 9.503 0 01-6.718-2.782 9.503 9.503 0 010-13.436 9.503 9.503 0 016.718-2.782zm-76.775-232.807a16.599 16.599 0 00-15.343 10.232 16.585 16.585 0 00-.951 9.589 16.6 16.6 0 0013.034 13.047c3.219.642 6.557.314 9.59-.942a16.587 16.587 0 0010.247-15.333 16.6 16.6 0 00-16.577-16.593zm0 21.187a4.597 4.597 0 01-4.525-5.48 4.597 4.597 0 016.262-3.36 4.593 4.593 0 01-1.737 8.84zm59.498 12a16.599 16.599 0 0015.343-10.232 16.594 16.594 0 10-15.343 10.232zm0-21.187a4.597 4.597 0 014.525 5.48 4.6 4.6 0 01-3.606 3.619 4.599 4.599 0 01-5.496-4.506 4.589 4.589 0 014.577-4.593zm59.498 21.187a16.59 16.59 0 0015.344-10.231 16.594 16.594 0 10-15.344 10.231zm0-21.187a4.597 4.597 0 014.525 5.48 4.6 4.6 0 01-3.606 3.619 4.599 4.599 0 01-5.496-4.506 4.589 4.589 0 014.577-4.593zm59.497 21.187A16.595 16.595 0 10314 170.786a16.6 16.6 0 0016.572 16.594zm0-21.187a4.59 4.59 0 014.53 5.477 4.592 4.592 0 01-8.327 1.671 4.6 4.6 0 01.562-5.796 4.59 4.59 0 013.235-1.352zM92.581 203.847a16.6 16.6 0 00-15.343 10.232 16.595 16.595 0 1031.92 6.362 16.6 16.6 0 00-16.577-16.594zm0 21.187a4.595 4.595 0 11-.033-9.19 4.595 4.595 0 01.033 9.19zm59.498-21.187a16.599 16.599 0 00-15.343 10.232 16.594 16.594 0 1015.343-10.232zm0 21.187a4.597 4.597 0 01-4.525-5.48 4.596 4.596 0 016.263-3.36 4.599 4.599 0 012.839 4.247 4.589 4.589 0 01-4.577 4.593zm59.498 12a16.599 16.599 0 0015.343-10.232 16.585 16.585 0 00.951-9.589 16.593 16.593 0 10-16.294 19.821zm0-21.187a4.597 4.597 0 014.525 5.48 4.597 4.597 0 01-6.262 3.36 4.593 4.593 0 011.737-8.84zm59.498 21.187a16.59 16.59 0 0015.344-10.231 16.59 16.59 0 00-12.081-22.637 16.59 16.59 0 00-17.041 7.054 16.593 16.593 0 0013.778 25.814zm0-21.187a4.597 4.597 0 014.525 5.48 4.597 4.597 0 01-6.262 3.36 4.593 4.593 0 011.737-8.84zm59.497 21.187A16.595 16.595 0 10314 220.441a16.603 16.603 0 0016.572 16.593zm0-21.187a4.595 4.595 0 11.045 9.19 4.595 4.595 0 01-.045-9.19zm0 70.943a16.598 16.598 0 0015.347-10.229 16.598 16.598 0 00-3.585-18.092 16.593 16.593 0 10-11.762 28.321zm0-21.187a4.597 4.597 0 014.26 2.82 4.596 4.596 0 01-8.055 4.331 4.6 4.6 0 01.557-5.8 4.595 4.595 0 013.238-1.354v.003zM60 141.24a6 6 0 00-6 6V150a6.002 6.002 0 006 6 6 6 0 006-6v-2.76a6.002 6.002 0 00-6-6zm0 20.581a6 6 0 00-6 6v80.007a6.002 6.002 0 006 6 6 6 0 006-6v-80.007a6.002 6.002 0 00-6-6zM92.581 253.5a16.597 16.597 0 00-15.342 10.231A16.593 16.593 0 1092.58 253.5zm0 21.187a4.595 4.595 0 113.239-1.349 4.586 4.586 0 01-3.239 1.351v-.002zm59.498-21.187a16.598 16.598 0 00-15.342 10.231 16.59 16.59 0 0012.078 22.636 16.589 16.589 0 0019.841-16.267 16.601 16.601 0 00-16.577-16.6zm0 21.187a4.597 4.597 0 01-4.525-5.48 4.6 4.6 0 013.606-3.619 4.599 4.599 0 014.158 7.75 4.586 4.586 0 01-3.239 1.351v-.002zm59.498 12.002a16.592 16.592 0 0015.343-10.233 16.589 16.589 0 00-3.588-18.09 16.6 16.6 0 00-8.497-4.546 16.599 16.599 0 00-17.04 7.058A16.597 16.597 0 00195 270.1a16.6 16.6 0 0016.577 16.589zm0-21.187a4.591 4.591 0 014.256 2.823 4.598 4.598 0 01-.983 5.012 4.6 4.6 0 01-5.007 1.006A4.598 4.598 0 01207 270.1a4.588 4.588 0 014.577-4.6v.002zM92.581 303.157a16.6 16.6 0 00-15.343 10.232 16.594 16.594 0 1015.343-10.232zm0 21.187a4.595 4.595 0 11-.033-9.19 4.595 4.595 0 01.033 9.19zm59.498-21.187a16.599 16.599 0 00-15.343 10.232 16.585 16.585 0 00-.951 9.589 16.6 16.6 0 0013.034 13.047c3.219.642 6.557.314 9.59-.942a16.587 16.587 0 0010.247-15.333 16.6 16.6 0 00-16.577-16.593zm0 21.187a4.597 4.597 0 01-4.525-5.48 4.597 4.597 0 016.262-3.36 4.593 4.593 0 01-1.737 8.84zm118.996-37.554a16.589 16.589 0 0015.345-10.231 16.59 16.59 0 00-3.587-18.091 16.591 16.591 0 00-25.537 2.51 16.59 16.59 0 002.061 20.945 16.6 16.6 0 0011.718 4.867zm0-21.187a4.593 4.593 0 11-4.575 4.597 4.59 4.59 0 014.575-4.6v.003z" fill="#fff" fill-opacity=".3"/><path d="M476 426.83v-45.606a24.404 24.404 0 00-21.094-24.108l-17.353-47.578A25.296 25.296 0 00413.715 293H394V85.36C394 67.556 379.051 53 361.241 53H342V37.463a27.245 27.245 0 00-2.01-10.478A27.259 27.259 0 00314.812 10C299.667 10 287 22.32 287 37.463V53H136V37.463a27.497 27.497 0 00-27.5-27.5 27.5 27.5 0 00-27.5 27.5V53H61.908A32.06 32.06 0 0030 85.356v271.5A31.848 31.848 0 0061.914 389H188v37.83a8.854 8.854 0 00-6 8.164v21.445a8.47 8.47 0 008.312 8.561h.555l.157 22.166A14.975 14.975 0 00206.042 502h.113l24.445-.163a14.917 14.917 0 0010.59-4.478 14.76 14.76 0 003.228-4.852 14.755 14.755 0 001.095-5.724L245.358 465h173.434l.157 22.165A14.955 14.955 0 00433.964 502h.115l24.445-.163a14.917 14.917 0 0010.591-4.478 14.76 14.76 0 003.228-4.852 14.755 14.755 0 001.095-5.724L473.283 465h.67c4.634 0 8.047-3.927 8.047-8.561v-21.445c0-3.959-2-7.279-6-8.164zm-12-45.606V427h-67.91l-10.929-16.2a6.183 6.183 0 00-4.956-2.8H279.333a6.183 6.183 0 00-4.956 2.8L263.448 427H200v-45.776c0-6.8 5.889-12.224 12.69-12.224h238.886A12.328 12.328 0 01464 381.224zM381.563 427H277.975l4.528-7h94.532l4.528 7zm32.152-122a13.295 13.295 0 0112.536 8.69L442.013 357h-219.76l15.761-43.31a13.287 13.287 0 0112.537-8.69h163.164zM299 37.463a15.5 15.5 0 1131 0V78h-31V37.463zm-206 0a15.5 15.5 0 1131 0V78H93V37.463zM42 85.352A20.05 20.05 0 0161.914 65H81v19.182A5.747 5.747 0 0086.879 90H129.8a6.022 6.022 0 006.2-5.818V65h151v19.182C287 87.5 290.033 90 293.347 90h42.928a5.614 5.614 0 005.347-3.581 5.621 5.621 0 00.378-2.237V65h19.236C372.425 65 382 74.164 382 85.356V117H42V85.352zM188.386 377H61.918a19.835 19.835 0 01-14.185-5.892A19.842 19.842 0 0142 356.858V129h340v164H250.551a25.285 25.285 0 00-14.516 4.514 25.283 25.283 0 00-9.301 12.024l-17.507 47.654A24.545 24.545 0 00188.386 377zm44.258 111.975a3.01 3.01 0 01-2.128.882l-24.446.152a3 3 0 01-3.046-2.926L202.868 465h30.489l.156 21.87a2.897 2.897 0 01-.869 2.105zm227.924 0a2.994 2.994 0 01-2.128.882l-24.446.152c-.801 0-1.57-.314-2.143-.874a2.806 2.806 0 01-.9-2.054L430.793 465h30.49l.155 21.87a2.916 2.916 0 01-.87 2.105zM470 453H194v-14h276v14z" fill="#fff" fill-opacity=".3"/></svg>