<svg width="144" height="42" fill="none" xmlns="http://www.w3.org/2000/svg"><path d="M1.69 30V11.516h5.688c1.625 0 3.076.368 4.354 1.104 1.287.728 2.29 1.769 3.01 3.123.719 1.346 1.078 2.878 1.078 4.596v.85c0 1.719-.355 3.246-1.066 4.584a7.55 7.55 0 01-2.983 3.11c-1.287.736-2.738 1.108-4.355 1.117H1.69zM5.5 14.6v12.34h1.84c1.49 0 2.629-.486 3.416-1.46.787-.973 1.189-2.365 1.206-4.176v-.978c0-1.879-.39-3.3-1.168-4.265-.779-.974-1.917-1.46-3.415-1.46h-1.88zM22.231 30H18.55V16.264h3.681V30zm-3.897-17.291c0-.55.182-1.003.546-1.358.372-.356.876-.534 1.51-.534.627 0 1.126.178 1.499.534.372.355.558.808.558 1.358 0 .559-.19 1.016-.571 1.371-.372.355-.867.533-1.485.533-.618 0-1.118-.178-1.498-.533-.373-.355-.559-.812-.559-1.371zm12.162 7.655l2.31-4.1h3.924l-3.91 6.728L36.894 30h-3.936l-2.45-4.316L28.07 30h-3.948l4.075-7.008-3.897-6.728h3.935l2.26 4.1zm14.067 9.89c-2.015 0-3.657-.618-4.926-1.854-1.261-1.235-1.892-2.881-1.892-4.938v-.356c0-1.38.267-2.61.8-3.694.533-1.092 1.286-1.93 2.26-2.514.981-.592 2.099-.888 3.351-.888 1.88 0 3.356.592 4.43 1.777 1.084 1.185 1.626 2.865 1.626 5.04v1.498h-8.747c.118.897.474 1.617 1.066 2.158.601.542 1.359.813 2.273.813 1.413 0 2.518-.512 3.313-1.536l1.803 2.018c-.55.779-1.295 1.388-2.235 1.828-.939.432-1.98.648-3.123.648zm-.42-11.274c-.727 0-1.32.246-1.777.737-.448.49-.736 1.193-.863 2.107h5.103v-.292c-.017-.812-.236-1.439-.66-1.879-.423-.448-1.024-.672-1.802-.672zm11.54-2.716l.115 1.587c.982-1.228 2.298-1.841 3.948-1.841 1.456 0 2.54.427 3.25 1.282.711.855 1.075 2.133 1.092 3.834V30h-3.67v-8.785c0-.779-.168-1.342-.507-1.689-.338-.355-.901-.533-1.688-.533-1.033 0-1.807.44-2.324 1.32V30H52.23V16.264h3.454zm14.778 1.498c.973-1.168 2.196-1.752 3.669-1.752 2.979 0 4.49 1.73 4.532 5.192V30h-3.669v-8.696c0-.787-.17-1.367-.508-1.74-.338-.38-.901-.57-1.688-.57-1.075 0-1.854.414-2.336 1.243V30h-3.669V10.5h3.669v7.262zM89.39 30c-.17-.33-.292-.74-.368-1.231-.89.99-2.044 1.485-3.466 1.485-1.346 0-2.463-.39-3.352-1.168-.88-.779-1.32-1.76-1.32-2.945 0-1.456.537-2.573 1.612-3.352 1.083-.779 2.645-1.172 4.685-1.18h1.688v-.788c0-.635-.165-1.142-.495-1.523-.322-.381-.834-.571-1.536-.571-.618 0-1.105.148-1.46.444-.347.296-.52.702-.52 1.219h-3.67c0-.796.246-1.532.737-2.21.49-.676 1.185-1.205 2.082-1.586.897-.39 1.904-.584 3.021-.584 1.693 0 3.034.427 4.025 1.282.998.846 1.498 2.04 1.498 3.58v5.954c.008 1.304.19 2.29.546 2.958V30H89.39zm-3.034-2.552a3.21 3.21 0 001.498-.355c.457-.246.795-.572 1.015-.978v-2.361h-1.371c-1.837 0-2.814.635-2.933 1.904l-.012.216c0 .457.16.834.482 1.13.322.296.762.444 1.32.444z" fill="#AF3A87"/><circle cx="123" cy="21" r="21" fill="#8AAF3A"/><path d="M114.5 26.484l3.141-11.39h4.718L116.656 32h-4.312l-5.703-16.906h4.718l3.141 11.39zm14.016-11.39l.14 1.953c1.209-1.51 2.828-2.266 4.86-2.266 1.791 0 3.125.526 4 1.578s1.323 2.625 1.343 4.72V32h-4.515V21.187c0-.958-.209-1.65-.625-2.078-.417-.437-1.11-.656-2.078-.656-1.271 0-2.224.542-2.86 1.625V32h-4.515V15.094h4.25z" fill="#fff"/></svg>