<svg width="368" height="144" fill="none" xmlns="http://www.w3.org/2000/svg"><g opacity=".26" fill="#fff"><path d="M367.431 76.455l-11.497-17.19a2.881 2.881 0 00-1.836-1.222l-84.647-16.586C263.298 37.059 210.808.689 158.088.689c-49.913 0-80.458 9.362-86.246 11.3l-16.32-5.422a2.872 2.872 0 00-3.635 1.81 2.86 2.86 0 001.816 3.624l17.245 5.73a2.918 2.918 0 001.89-.022c.314-.114 31.867-11.29 85.25-11.29 53.011 0 107.943 39.638 108.488 40.039.343.248.736.42 1.145.5l84.091 16.48 10.352 15.475v30.647c0 .022-.04 2.238-3.442 2.92-4.389.874-24.223 2.229-34.098 2.816a2.863 2.863 0 00-2.694 3.027 2.872 2.872 0 002.868 2.698c.056 0 .112 0 .175-.007 1.179-.073 29.007-1.74 34.885-2.916 6.372-1.275 8.056-6.144 8.056-8.539V78.044a2.86 2.86 0 00-.483-1.59zM57.282 19.683a2.875 2.875 0 00-3.737-1.598C24.586 29.632 7.313 46.651 6.591 47.37a2.86 2.86 0 00-.842 2.026V65.91L.303 76.764A2.867 2.867 0 000 78.046v28.649c0 .773.354 4.819 7.34 8.294 6.013 2.987 27.264 5.707 29.67 6.01.12.01.241.022.36.022a2.875 2.875 0 002.848-2.507 2.868 2.868 0 00-2.495-3.2c-6.26-.783-23.46-3.286-27.817-5.451-3.618-1.801-4.143-3.346-4.157-3.189v-27.95l5.446-10.856a2.88 2.88 0 00.302-1.282V50.624c3.75-3.471 19.798-17.495 44.182-27.217a2.863 2.863 0 001.602-3.724zm198.533 95.608H106.35a2.867 2.867 0 00-2.874 2.864 2.868 2.868 0 002.874 2.866h149.465a2.868 2.868 0 002.874-2.866 2.867 2.867 0 00-2.874-2.864z"/><path d="M186.83 57.991h-11.497a2.868 2.868 0 00-2.874 2.865 2.868 2.868 0 002.874 2.865h11.497a2.868 2.868 0 002.875-2.865 2.867 2.867 0 00-2.875-2.865zm-63.234 0h-11.497a2.868 2.868 0 00-2.874 2.865 2.868 2.868 0 002.874 2.865h11.497a2.869 2.869 0 002.875-2.865 2.868 2.868 0 00-2.875-2.865zm132.219-17.19H117.848c-26.534 0-37.232-20.472-37.673-21.342a2.879 2.879 0 00-3.86-1.27 2.86 2.86 0 00-1.28 3.839c.503 1.001 12.64 24.503 42.812 24.503h137.968a2.868 2.868 0 002.874-2.864 2.868 2.868 0 00-2.874-2.866zM54.612 6.421a2.868 2.868 0 00-2.874 2.865v5.73a2.867 2.867 0 002.874 2.865 2.868 2.868 0 002.874-2.865v-5.73a2.868 2.868 0 00-2.874-2.865zM20.12 86.64H2.875A2.868 2.868 0 000 89.507a2.868 2.868 0 002.874 2.865h17.247a2.868 2.868 0 002.874-2.865 2.868 2.868 0 00-2.874-2.865zm19.915-32.578a2.877 2.877 0 00-3.736-1.597L7.556 63.925a2.863 2.863 0 001.067 5.526c.356 0 .719-.064 1.066-.205l28.743-11.46a2.863 2.863 0 001.603-3.724z"/><path d="M37.93 52.317l-28.743-5.73a2.865 2.865 0 10-1.128 5.618l28.743 5.73a2.872 2.872 0 003.382-2.247 2.865 2.865 0 00-2.253-3.37zm122.976-14.944l-5.749-28.65c-.312-1.552-1.799-2.577-3.382-2.247a2.865 2.865 0 00-2.254 3.372l5.748 28.65a2.872 2.872 0 003.383 2.247 2.866 2.866 0 002.254-3.372zM365.51 75.22l-34.491-5.73c-1.55-.283-3.043.791-3.307 2.355a2.863 2.863 0 002.363 3.296l34.492 5.73a2.876 2.876 0 003.306-2.356 2.863 2.863 0 00-2.363-3.295z"/><path d="M331.832 69.753l-11.497-5.73a2.89 2.89 0 00-3.856 1.281 2.862 2.862 0 001.285 3.845l11.497 5.73a2.88 2.88 0 003.857-1.281 2.863 2.863 0 00-1.286-3.845z"/><path d="M345.884 63.721H319.05a2.868 2.868 0 00-2.875 2.865 2.868 2.868 0 002.875 2.865h26.834a2.868 2.868 0 002.874-2.865 2.868 2.868 0 00-2.874-2.865zM290.48 109.56h-.062a2.843 2.843 0 00-2.84 2.865c0 1.584 1.314 2.866 2.902 2.866a2.872 2.872 0 002.874-2.866 2.872 2.872 0 00-2.874-2.865z"/><path d="M290.306 80.912c-17.431 0-31.617 14.134-31.617 31.514s14.186 31.515 31.617 31.515 31.618-14.135 31.618-31.515c0-17.38-14.187-31.514-31.618-31.514zm0 57.299c-14.264 0-25.869-11.566-25.869-25.786 0-14.218 11.604-25.784 25.869-25.784 14.266 0 25.869 11.566 25.869 25.784 0 14.219-11.603 25.786-25.869 25.786z"/><path d="M290.306 92.37a2.868 2.868 0 00-2.874 2.866v5.729a2.868 2.868 0 002.874 2.865 2.868 2.868 0 002.875-2.865v-5.73a2.869 2.869 0 00-2.875-2.864zm0 28.651a2.868 2.868 0 00-2.874 2.864v5.73a2.869 2.869 0 002.874 2.866 2.869 2.869 0 002.875-2.866v-5.73a2.868 2.868 0 00-2.875-2.864zm-11.497-11.461h-5.749a2.869 2.869 0 00-2.874 2.865 2.869 2.869 0 002.874 2.866h5.749a2.868 2.868 0 002.874-2.866 2.868 2.868 0 00-2.874-2.865zm28.743 0h-5.749a2.868 2.868 0 00-2.873 2.865 2.868 2.868 0 002.873 2.866h5.749a2.869 2.869 0 002.875-2.866 2.869 2.869 0 00-2.875-2.865zm-23.343-7.262l-4.064-4.051a2.88 2.88 0 00-4.065 0 2.859 2.859 0 000 4.051l4.065 4.051a2.871 2.871 0 002.032.839c.736 0 1.47-.28 2.032-.839a2.857 2.857 0 000-4.051zm20.323 20.256l-4.064-4.051a2.88 2.88 0 00-4.065 0 2.857 2.857 0 000 4.051l4.065 4.051c.561.56 1.296.839 2.032.839.735 0 1.471-.278 2.032-.839a2.857 2.857 0 000-4.051zm-20.323-4.051a2.88 2.88 0 00-4.064 0l-4.065 4.051a2.858 2.858 0 000 4.051 2.87 2.87 0 002.032.839c.736 0 1.472-.278 2.033-.839l4.064-4.051a2.857 2.857 0 000-4.051zm20.323-20.256a2.88 2.88 0 00-4.065 0l-4.065 4.051a2.858 2.858 0 000 4.051 2.875 2.875 0 002.033.839c.735 0 1.471-.28 2.032-.839l4.065-4.051a2.859 2.859 0 000-4.051zM72.03 109.56h-.056a2.845 2.845 0 00-2.847 2.865c0 1.584 1.316 2.866 2.903 2.866a2.869 2.869 0 002.874-2.866 2.869 2.869 0 00-2.874-2.865z"/><path d="M71.859 80.912c-17.432 0-31.613 14.134-31.613 31.514s14.181 31.515 31.613 31.515c17.433 0 31.617-14.135 31.617-31.515 0-17.38-14.183-31.514-31.617-31.514zm0 57.299c-14.262 0-25.863-11.566-25.863-25.786 0-14.218 11.6-25.784 25.863-25.784 14.264 0 25.868 11.566 25.868 25.784 0 14.219-11.603 25.786-25.868 25.786z"/><path d="M71.859 92.37a2.868 2.868 0 00-2.875 2.866v5.729a2.868 2.868 0 002.875 2.865 2.868 2.868 0 002.874-2.865v-5.73a2.868 2.868 0 00-2.874-2.864zm0 28.651a2.868 2.868 0 00-2.875 2.864v5.73a2.869 2.869 0 002.875 2.866 2.869 2.869 0 002.874-2.866v-5.73a2.868 2.868 0 00-2.874-2.864zM60.361 109.56H54.62a2.868 2.868 0 00-2.875 2.865 2.868 2.868 0 002.874 2.866h5.743a2.87 2.87 0 002.875-2.866 2.869 2.869 0 00-2.875-2.865zm28.743 0h-5.748a2.869 2.869 0 00-2.875 2.865 2.869 2.869 0 002.875 2.866h5.748a2.869 2.869 0 002.874-2.866 2.869 2.869 0 00-2.874-2.865zm-23.343-7.262l-4.064-4.051a2.88 2.88 0 00-4.065 0 2.858 2.858 0 000 4.051l4.065 4.051a2.873 2.873 0 002.032.839 2.87 2.87 0 002.032-.839 2.857 2.857 0 000-4.051zm20.322 20.256l-4.064-4.051a2.88 2.88 0 00-4.065 0 2.857 2.857 0 000 4.051l4.065 4.051c.561.56 1.297.839 2.032.839.736 0 1.47-.278 2.032-.839a2.857 2.857 0 000-4.051zm-20.321-4.051a2.88 2.88 0 00-4.065 0l-4.064 4.051a2.857 2.857 0 000 4.051c.561.56 1.297.839 2.032.839.735 0 1.47-.278 2.032-.839l4.065-4.051a2.857 2.857 0 000-4.051zm20.322-20.256a2.88 2.88 0 00-4.065 0l-4.064 4.051a2.857 2.857 0 000 4.051 2.871 2.871 0 002.032.839 2.87 2.87 0 002.032-.839l4.065-4.051a2.858 2.858 0 000-4.051z"/></g></svg>